HIERARCHY
ROOT Hips
{
 OFFSET 0.000000 0.000000 0.000000
 CHANNELS 6 Xposition Yposition Zposition Yrotation Xrotation Zrotation
 JOINT Chest
 {
  OFFSET 0.000000 12.953391 -0.028419
  CHANNELS 3 Yrotation Xrotation Zrotation
  JOINT Chest2
  {
   OFFSET 0.000000 10.280254 0.051622
   CHANNELS 3 Yrotation Xrotation Zrotation
   JOINT Chest3
   {
    OFFSET 0.000000 9.287180 0.000000
    CHANNELS 3 Yrotation Xrotation Zrotation
    JOINT Chest4
    {
     OFFSET 0.000000 9.287180 0.000000
     CHANNELS 3 Yrotation Xrotation Zrotation
     JOINT Neck
     {
      OFFSET 0.000000 13.296264 0.000000
      CHANNELS 3 Yrotation Xrotation Zrotation
      JOINT Head
      {
       OFFSET 0.000000 8.959264 0.099003
       CHANNELS 3 Yrotation Xrotation Zrotation
       End Site
       {
        OFFSET 0.000000 17.121337 0.039303
       }
      }
     }
     JOINT RightCollar
     {
      OFFSET -3.193511 7.451388 0.000000
      CHANNELS 3 Yrotation Xrotation Zrotation
      JOINT RightShoulder
      {
       OFFSET -15.792092 0.000000 0.000000
       CHANNELS 3 Yrotation Xrotation Zrotation
       JOINT RightElbow
       {
        OFFSET -31.151839 0.000000 0.000000
        CHANNELS 3 Yrotation Xrotation Zrotation
        JOINT RightWrist
        {
         OFFSET -25.536298 0.000000 0.002321
         CHANNELS 3 Yrotation Xrotation Zrotation
         End Site
         {
          OFFSET -19.133213 0.000000 0.000000
         }
        }
       }
      }
     }
     JOINT LeftCollar
     {
      OFFSET 3.193511 7.451388 0.000000
      CHANNELS 3 Yrotation Xrotation Zrotation
      JOINT LeftShoulder
      {
       OFFSET 15.792092 0.000000 0.000000
       CHANNELS 3 Yrotation Xrotation Zrotation
       JOINT LeftElbow
       {
        OFFSET 31.151839 0.000000 0.000000
        CHANNELS 3 Yrotation Xrotation Zrotation
        JOINT LeftWrist
        {
         OFFSET 25.536298 0.000000 0.002321
         CHANNELS 3 Yrotation Xrotation Zrotation
         End Site
         {
          OFFSET 19.133213 0.000000 0.000000
         }
        }
       }
      }
     }
    }
   }
  }
 }
 JOINT RightHip
 {
  OFFSET -10.745749 0.139252 0.014209
  CHANNELS 3 Yrotation Xrotation Zrotation
  JOINT RightKnee
  {
   OFFSET 0.000000 -43.743899 -0.006071
   CHANNELS 3 Yrotation Xrotation Zrotation
   JOINT RightAnkle
   {
    OFFSET 0.000000 -43.214199 0.089931
    CHANNELS 3 Yrotation Xrotation Zrotation
    JOINT RightToe
    {
     OFFSET 0.000000 -9.699830 19.151588
     CHANNELS 3 Yrotation Xrotation Zrotation
     End Site
     {
      OFFSET 0.000000 -1.292898 4.893873
     }
    }
   }
  }
 }
 JOINT LeftHip
 {
  OFFSET 10.745749 0.139252 0.014209
  CHANNELS 3 Yrotation Xrotation Zrotation
  JOINT LeftKnee
  {
   OFFSET 0.000000 -43.743899 -0.006071
   CHANNELS 3 Yrotation Xrotation Zrotation
   JOINT LeftAnkle
   {
    OFFSET 0.000000 -43.214199 0.089931
    CHANNELS 3 Yrotation Xrotation Zrotation
    JOINT LeftToe
    {
     OFFSET 0.000000 -9.699830 19.151588
     CHANNELS 3 Yrotation Xrotation Zrotation
     End Site
     {
      OFFSET 0.000000 -1.292898 4.893873
     }
    }
   }
  }
 }
}
MOTION
Frames: 8
Frame Time: 0.016667
0.000000	0.000000	0.000000	0.000000	0.000000	0.000000	0.508922	7.818687	2.626951	0.764189	11.596281	3.985302	1.429731	15.489876	5.397085	1.810801	18.410402	6.283266	2.682281	40.108407	3.724346	-2.157861	44.493065	-4.719837	6.479363	20.739933	15.157879	3.286907	4.853644	85.244608	21.705833	5.566960	78.747819	38.696073	4.005648	70.466207	-3.616271	20.029718	-4.528608	-9.060012	7.851226	-76.613078	-20.515194	3.912300	-73.682622	-20.326299	16.213527	-77.365847	-9.539573	-2.837789	-2.565903	-13.803645	17.893522	-1.705452	-19.078120	14.663780	-2.329247	-19.069508	10.051704	-0.807180	5.840378	-2.535060	1.419269	7.950681	16.659911	1.398736	2.197905	13.581895	-2.823153	2.276382	10.171358	-1.932966
-0.055296	0.185136	0.846219	0.200774	0.050133	0.211039	-2.470661	9.521373	-2.541303	-2.864133	14.001860	-4.070768	-3.247098	18.763744	-5.516170	-3.829173	22.410477	-6.965243	-20.222233	51.846744	-12.547825	-80.735477	64.359583	-55.943591	3.509800	16.765602	-2.343959	14.120963	-11.212207	39.438504	13.630413	8.225294	23.190571	24.354024	17.888667	35.284786	-2.739548	13.987726	-12.764967	-5.209605	2.508159	-56.422132	4.219075	-2.938418	-47.698634	22.701803	1.724372	-47.248453	-4.999317	-10.365058	2.970629	-3.873830	21.619378	1.862475	5.375742	19.386732	4.890264	4.456604	9.217039	5.834055	-0.645986	-8.278439	2.339225	-2.019313	27.361925	2.091487	-20.851085	16.559888	-8.609233	-20.588211	12.248552	-6.912472
-0.183769	-0.166746	0.228936	-1.177226	0.260984	0.264681	-2.669577	9.933801	-1.849316	-3.265296	14.453383	-3.152291	-3.914050	19.236476	-4.427779	-4.622766	22.939124	-5.629295	-20.453664	53.144332	-11.321064	-87.409330	66.464436	-62.148890	2.948260	18.376513	-0.124723	13.634566	-10.833043	43.892111	14.362433	9.327733	27.573772	26.186876	16.275435	38.912494	-4.306402	15.962832	-11.961624	-10.582936	2.413303	-56.485436	-3.648001	-1.675179	-46.754463	14.542553	0.990891	-45.932538	-6.154708	-13.915899	3.211187	-6.090858	26.591949	0.690382	4.088384	29.823049	4.299033	3.168557	17.613187	4.626079	0.742119	-7.251711	2.135294	-0.611651	31.422598	1.756455	-21.890216	21.893113	-12.207375	-21.221391	17.014237	-9.987771
-0.317858	-0.342219	-0.706919	-2.121410	0.448157	0.411222	-2.620179	10.084922	-2.179597	-3.265942	14.572669	-3.648674	-3.981924	19.297194	-5.096129	-4.755083	22.981388	-6.446947	-21.141315	52.831065	-12.814143	-87.766016	65.511854	-63.803491	3.115669	18.276453	-1.085538	15.025011	-12.192501	41.013711	14.342097	8.559284	24.016991	24.789846	16.614196	34.477337	-4.229626	15.674752	-12.936698	-9.270787	2.255205	-57.183057	-2.051109	-1.826874	-47.316155	15.999400	0.705893	-45.100025	-5.937708	-14.210099	3.281994	-5.649902	27.646971	0.565171	5.757836	30.469849	4.772880	4.767310	18.324108	4.713901	0.478076	-6.899067	2.336473	-0.529503	31.362763	1.901387	-21.638058	21.824891	-11.627621	-20.996587	17.055497	-9.348765
-0.479694	-0.526750	-1.791077	-3.108767	0.622387	0.539414	-2.663762	10.129258	-2.190849	-3.365554	14.617534	-3.682102	-4.152341	19.337569	-5.161222	-4.976142	23.022343	-6.527847	-21.671784	52.867491	-13.017747	-89.044205	65.244204	-64.451638	3.029699	18.358826	-1.134545	14.947066	-12.397840	40.696098	13.988393	8.439908	23.600052	24.243764	16.545496	33.968612	-4.393017	15.800377	-13.081569	-9.382621	2.224682	-57.311092	-2.210781	-1.757936	-47.370798	15.783577	0.582433	-44.810081	-5.891932	-14.584676	3.401960	-5.558026	28.274059	0.532723	6.388164	31.431452	5.005187	5.331923	19.077315	4.712348	0.595809	-6.809763	2.411801	-0.366916	31.418053	1.944090	-21.736764	22.020526	-11.859228	-21.057261	17.202369	-9.506749
-0.630932	-0.701286	-2.935254	-4.025722	0.795653	0.665455	-2.637479	10.153569	-2.227695	-3.341855	14.639034	-3.739262	-4.134043	19.352814	-5.241589	-4.963460	23.035507	-6.623335	-21.601998	52.844079	-13.189432	-88.798729	65.289278	-64.720189	3.055982	18.362453	-1.226449	15.064075	-12.539750	40.398548	13.968146	8.364018	23.239028	23.988379	16.603923	33.489469	-4.385516	15.784137	-13.196058	-9.239466	2.209380	-57.435681	-2.085215	-1.714679	-47.475896	15.834249	0.565920	-44.729283	-5.874385	-14.690195	3.421370	-5.504218	28.495140	0.494787	6.617285	31.668284	5.046751	5.547830	19.301247	4.662697	0.604546	-6.752414	2.442029	-0.295892	31.435677	1.957591	-21.671972	22.110940	-11.858813	-20.980494	17.259045	-9.488096
-0.769428	-0.868174	-4.103795	-4.929864	0.967548	0.786300	-2.650317	10.156195	-2.235383	-3.366537	14.639908	-3.753119	-4.172596	19.350448	-5.264608	-5.013272	23.030737	-6.651251	-21.731431	52.820062	-13.233843	-88.946385	65.182748	-64.678016	3.038339	18.361993	-1.254837	15.060991	-12.598607	40.293873	13.902490	8.314114	23.111021	23.881913	16.577511	33.328615	-4.415954	15.795338	-13.233058	-9.239664	2.192505	-57.466786	-2.089352	-1.719912	-47.496809	15.821901	0.537110	-44.679080	-5.864419	-14.742921	3.446998	-5.477496	28.568577	0.497585	6.730245	31.756035	5.083857	5.650995	19.378922	4.662457	0.622809	-6.730891	2.464342	-0.255150	31.431931	1.976177	-21.636709	22.121348	-11.843540	-20.942531	17.257242	-9.465914
-0.890910	-1.032514	-5.283790	-5.824635	1.140516	0.903988	-2.642513	10.160713	-2.240709	-3.358094	14.644580	-3.761258	-4.163825	19.354696	-5.276731	-5.004455	23.034905	-6.664838	-21.696625	52.821973	-13.260130	-88.879283	65.214401	-64.745695	3.044673	18.364026	-1.265949	15.074159	-12.615601	40.254945	13.898069	8.308517	23.064904	23.833154	16.595743	33.266678	-4.412306	15.793270	-13.249275	-9.213209	2.194751	-57.489402	-2.067146	-1.705751	-47.517277	15.826511	0.540267	-44.670451	-5.859815	-14.763956	3.449827	-5.464926	28.601905	0.490645	6.774061	31.797013	5.091255	5.691693	19.416898	4.651544	0.625002	-6.718959	2.468107	-0.245262	31.435211	1.975779	-21.635558	22.138726	-11.856123	-20.938018	17.266090	-9.474095
